<?xml version="1.0" encoding="UTF-8"?> <!-- Generator: Adobe Illustrator 25.3.1, SVG Export Plug-In . SVG Version: 6.00 Build 0) --> <svg xmlns="http://www.w3.org/2000/svg" xmlns:xlink="http://www.w3.org/1999/xlink" version="1.1" id="Layer_1" x="0px" y="0px" viewBox="0 0 540 573" style="enable-background:new 0 0 540 573;" xml:space="preserve"> <style type="text/css"> .st0{fill:#930363;} .st1{fill:#FFEDDC;} </style> <path class="st0" d="M56,0h228c30.9,0,56,25.1,56,56v461c0,30.9-25.1,56-56,56H56c-30.9,0-56-25.1-56-56V56C0,25.1,25.1,0,56,0z"></path> <path class="st1" d="M196,0h288c30.9,0,56,25.1,56,56v314c0,30.9-25.1,56-56,56H196c-30.9,0-56-25.1-56-56V56 C140,25.1,165.1,0,196,0z"></path> </svg> 